<?xml version="1.0" encoding="UTF-8"?>
<svg id="Layer_1" data-name="Layer 1" xmlns="http://www.w3.org/2000/svg" xmlns:xlink="http://www.w3.org/1999/xlink" viewBox="0 0 241.79 104.38">
  <defs>
    <style>
      .cls-1 {
        fill: #f7f7f7;
      }

      .cls-2 {
        fill: url(#linear-gradient);
      }

      .cls-3 {
        fill: #98c840;
      }
    </style>
    <linearGradient id="linear-gradient" x1="160.91" y1="72.18" x2="213.86" y2="27.52" gradientUnits="userSpaceOnUse">
      <stop offset=".15" stop-color="#264720"/>
      <stop offset=".22" stop-color="#2e5725"/>
      <stop offset=".37" stop-color="#417b32"/>
      <stop offset=".53" stop-color="#50973b"/>
      <stop offset=".69" stop-color="#5aab42"/>
      <stop offset=".84" stop-color="#60b846"/>
      <stop offset="1" stop-color="#63bc48"/>
    </linearGradient>
  </defs>
  <g>
    <g>
      <path class="cls-3" d="M8.5,91.14v-9.16h5.7c2.26,0,3.76,1.22,3.76,3.04,0,1.26-.69,2.22-1.82,2.71l1.96,3.41h-2.76l-1.77-3.08h-2.4v3.08h-2.68ZM14.35,85.91c.56,0,.94-.36.94-.89s-.43-.89-1.08-.89h-3.02v1.77h3.16Z"/>
      <path class="cls-3" d="M25.54,81.98l4.21,9.16h-2.7l-.64-1.39h-4.44l-.64,1.39h-2.7l4.21-9.16h2.7ZM25.53,87.83l-1.34-2.91-1.34,2.91h2.68Z"/>
      <path class="cls-3" d="M30.26,81.98h5.28c2.98,0,4.98,1.83,4.98,4.58s-1.99,4.58-4.98,4.58h-5.28v-9.16ZM35.54,88.99c1.3,0,2.17-.96,2.17-2.41s-.87-2.44-2.17-2.44h-2.6v4.85h2.6Z"/>
      <path class="cls-3" d="M50.65,81.98v9.16h-2.68v-3.59h-4.39v3.59h-2.68v-9.16h2.68v3.41h4.39v-3.41h2.68Z"/>
      <path class="cls-3" d="M53.85,81.98v9.16h-2.68v-9.16h2.68Z"/>
      <path class="cls-3" d="M57.04,81.98v3.59h.03l4.23-3.59h3.66l-4.58,3.88,4.4,5.29h-3.27l-3.05-3.66-1.43,1.21v2.45h-2.68v-9.16h2.68Z"/>
      <path class="cls-3" d="M72.39,81.98l4.21,9.16h-2.7l-.64-1.39h-4.44l-.64,1.39h-2.7l4.21-9.16h2.7ZM72.38,87.83l-1.34-2.91-1.34,2.91h2.68Z"/>
      <path class="cls-3" d="M84.26,91.31c-3.21,0-5.36-1.9-5.36-4.75s2.09-4.74,5.23-4.74c2.9,0,4.99,1.54,5.23,3.85h-2.81c-.14-1.01-1.06-1.69-2.3-1.69-1.53,0-2.55,1.03-2.55,2.58s1.02,2.59,2.55,2.59c1.21,0,2.08-.67,2.19-1.68h2.81c-.22,2.3-2.22,3.84-5,3.84Z"/>
      <path class="cls-3" d="M96.66,81.98l4.21,9.16h-2.7l-.64-1.39h-4.44l-.64,1.39h-2.7l4.21-9.16h2.7ZM96.65,87.83l-1.34-2.91-1.34,2.91h2.68Z"/>
      <path class="cls-3" d="M101.39,91.14v-9.16h5.45c2.33,0,3.89,1.26,3.89,3.16s-1.51,3.17-3.75,3.17h-2.91v2.84h-2.68ZM106.98,86.15c.64,0,1.07-.41,1.07-1.01s-.48-1-1.21-1h-2.77v2.01h2.91Z"/>
      <path class="cls-3" d="M113.79,81.98v9.16h-2.68v-9.16h2.68Z"/>
      <path class="cls-3" d="M124.24,84.14h-3.69v7.01h-2.68v-7.01h-3.7v-2.16h10.06v2.16Z"/>
      <path class="cls-3" d="M131.54,81.98l4.21,9.16h-2.7l-.64-1.39h-4.44l-.64,1.39h-2.7l4.21-9.16h2.7ZM131.53,87.83l-1.34-2.91-1.34,2.91h2.68Z"/>
      <path class="cls-3" d="M144.41,91.14h-8.14v-9.16h2.68v7.01h5.46v2.16Z"/>
    </g>
    <g>
      <path class="cls-1" d="M8.5,91.14v-9.16h5.7c2.26,0,3.76,1.22,3.76,3.04,0,1.26-.69,2.22-1.82,2.71l1.96,3.41h-2.76l-1.77-3.08h-2.4v3.08h-2.68ZM14.35,85.91c.56,0,.94-.36.94-.89s-.43-.89-1.08-.89h-3.02v1.77h3.16Z"/>
      <path class="cls-1" d="M25.54,81.98l4.21,9.16h-2.7l-.64-1.39h-4.44l-.64,1.39h-2.7l4.21-9.16h2.7ZM25.53,87.83l-1.34-2.91-1.34,2.91h2.68Z"/>
      <path class="cls-1" d="M30.26,81.98h5.28c2.98,0,4.98,1.83,4.98,4.58s-1.99,4.58-4.98,4.58h-5.28v-9.16ZM35.54,88.99c1.3,0,2.17-.96,2.17-2.41s-.87-2.44-2.17-2.44h-2.6v4.85h2.6Z"/>
      <path class="cls-1" d="M50.65,81.98v9.16h-2.68v-3.59h-4.39v3.59h-2.68v-9.16h2.68v3.41h4.39v-3.41h2.68Z"/>
      <path class="cls-1" d="M53.85,81.98v9.16h-2.68v-9.16h2.68Z"/>
      <path class="cls-1" d="M57.04,81.98v3.59h.03l4.23-3.59h3.66l-4.58,3.88,4.4,5.29h-3.27l-3.05-3.66-1.43,1.21v2.45h-2.68v-9.16h2.68Z"/>
      <path class="cls-1" d="M72.39,81.98l4.21,9.16h-2.7l-.64-1.39h-4.44l-.64,1.39h-2.7l4.21-9.16h2.7ZM72.38,87.83l-1.34-2.91-1.34,2.91h2.68Z"/>
      <path class="cls-1" d="M84.26,91.31c-3.21,0-5.36-1.9-5.36-4.75s2.09-4.74,5.23-4.74c2.9,0,4.99,1.54,5.23,3.85h-2.81c-.14-1.01-1.06-1.69-2.3-1.69-1.53,0-2.55,1.03-2.55,2.58s1.02,2.59,2.55,2.59c1.21,0,2.08-.67,2.19-1.68h2.81c-.22,2.3-2.22,3.84-5,3.84Z"/>
      <path class="cls-1" d="M96.66,81.98l4.21,9.16h-2.7l-.64-1.39h-4.44l-.64,1.39h-2.7l4.21-9.16h2.7ZM96.65,87.83l-1.34-2.91-1.34,2.91h2.68Z"/>
      <path class="cls-1" d="M101.39,91.14v-9.16h5.45c2.33,0,3.89,1.26,3.89,3.16s-1.51,3.17-3.75,3.17h-2.91v2.84h-2.68ZM106.98,86.15c.64,0,1.07-.41,1.07-1.01s-.48-1-1.21-1h-2.77v2.01h2.91Z"/>
      <path class="cls-1" d="M113.79,81.98v9.16h-2.68v-9.16h2.68Z"/>
      <path class="cls-1" d="M124.24,84.14h-3.69v7.01h-2.68v-7.01h-3.7v-2.16h10.06v2.16Z"/>
      <path class="cls-1" d="M131.54,81.98l4.21,9.16h-2.7l-.64-1.39h-4.44l-.64,1.39h-2.7l4.21-9.16h2.7ZM131.53,87.83l-1.34-2.91-1.34,2.91h2.68Z"/>
      <path class="cls-1" d="M144.41,91.14h-8.14v-9.16h2.68v7.01h5.46v2.16Z"/>
    </g>
  </g>
  <g>
    <path class="cls-1" d="M148.66,81.98l3.01,5.84h.03l3.01-5.84h2.77v9.16h-2.68v-4.14h-.03l-2.27,4.14h-1.63l-2.27-4.14h-.03v4.14h-2.68v-9.16h2.77Z"/>
    <path class="cls-1" d="M164.9,81.98l4.21,9.16h-2.7l-.64-1.39h-4.44l-.64,1.39h-2.7l4.21-9.16h2.7ZM164.89,87.83l-1.34-2.91-1.34,2.91h2.68Z"/>
    <path class="cls-1" d="M169.63,91.14v-9.16h5.7c2.26,0,3.76,1.22,3.76,3.04,0,1.26-.69,2.22-1.82,2.71l1.96,3.41h-2.76l-1.77-3.08h-2.4v3.08h-2.68ZM175.47,85.91c.56,0,.94-.36.94-.89s-.43-.89-1.08-.89h-3.02v1.77h3.16Z"/>
    <path class="cls-1" d="M182.43,81.98v3.59h.03l4.23-3.59h3.66l-4.58,3.88,4.4,5.29h-3.27l-3.05-3.66-1.43,1.21v2.45h-2.68v-9.16h2.68Z"/>
    <path class="cls-1" d="M198.97,87.5h-5.42v1.49h5.69v2.16h-8.37v-9.16h8.37v2.16h-5.69v1.21h5.42v2.16Z"/>
    <path class="cls-1" d="M209.69,84.14h-3.69v7.01h-2.68v-7.01h-3.7v-2.16h10.06v2.16Z"/>
    <path class="cls-1" d="M219.64,85h-2.68c0-.64-.73-1.01-1.95-1.01s-1.88.24-1.88.67c0,1.28,6.65-.17,6.65,3.73,0,1.83-1.71,2.93-4.62,2.93-3.2,0-5.09-1.28-5.09-3.45h2.68c0,.81.89,1.3,2.41,1.3,1.22,0,1.94-.28,1.94-.77,0-1.55-6.65.35-6.65-3.73,0-1.77,1.7-2.82,4.55-2.82s4.63,1.18,4.63,3.17Z"/>
  </g>
  <g>
    <path class="cls-1" d="M56.55,59.93c5.97,5.07,11.8,10.03,17.81,15.14-.44.06-.62.11-.79.1-4.95,0-9.89-.01-14.84-.04-.32,0-.71-.12-.94-.32-4.33-3.83-8.63-7.68-12.94-11.53-.93-.83-1.85-1.69-2.81-2.5-.24-.2-.63-.34-.95-.34-6.78-.01-13.56,0-20.33-.01-.74,0-.77.34-.77.9.01,4.29-.01,8.58.03,12.87,0,.82-.26.99-1.02.98-3.33-.03-6.67-.02-10,.02-.59,0-.74-.17-.74-.74.02-9.62.02-19.24.03-28.86,0-5.82.02-11.64,0-17.47,0-.73.19-.91.92-.91,14.84.02,29.68-.06,44.52.06,4.64.04,9.16,1.01,12.96,3.96,2.35,1.83,3.82,4.27,4.64,7.15.71,2.51.89,5.05.58,7.61-.44,3.65-1.62,7.03-4.39,9.59-1.88,1.74-4.16,2.86-6.67,3.46-1.31.32-2.65.55-4.29.88ZM37,50.84h0c4.67,0,9.34.03,14.02,0,1.22,0,2.45-.12,3.66-.28,3.25-.43,5.39-2.54,5.54-5.91.11-2.23-.27-4.33-2.08-5.85-1.52-1.27-3.41-1.55-5.3-1.58-3.85-.06-7.7.01-11.56.02-6.75.01-13.5.02-20.25,0-.81,0-1.07.23-1.06,1.07.05,3.85.04,7.7,0,11.56,0,.74.18.98.96.98,5.36-.03,10.71-.02,16.07-.02Z"/>
    <path class="cls-1" d="M137.22,65.38c0,3.16,0,6.24-.02,9.33,0,.16-.29.38-.49.45-.22.08-.49.01-.73.01-11.21.01-22.41.08-33.62.01-5.39-.03-10.56-1.17-15.11-4.25-3.85-2.61-6.62-6.05-8.07-10.56-1.26-3.92-1.47-7.91-1.17-11.96.28-3.8,1.29-7.41,3.32-10.66,2.58-4.11,6.31-6.83,10.78-8.6,2.58-1.02,5.29-1.44,8-1.85.62-.09,1.25-.08,1.88-.08,11.53,0,23.07,0,34.6,0,.16,0,.32.02.54.04.03.19.08.36.08.54,0,2.92,0,5.85.02,8.77,0,.58-.17.73-.75.73-11.23-.01-22.47-.04-33.7.03-3.76.03-7.19,1.17-9.88,3.98-1.39,1.45-2.26,3.21-2.77,5.12-1.1,4.16-.86,8.26.86,12.22,1.32,3.04,3.85,4.7,6.87,5.74,2.68.92,5.46.94,8.24.94,10.14,0,20.28-.02,30.42-.02.19,0,.37.03.7.06Z"/>
    <path class="cls-2" d="M164.27,75.07c17.22-19.15,34.28-38.12,51.44-57.22-3.71-.17-7.31-.33-10.91-.49l-.06-.13c9.53-4.67,19.05-9.33,28.8-14.11-1.45,9.94-2.87,19.68-4.29,29.41-.05.02-.11.04-.16.06-.44-.88-.86-1.76-1.31-2.62-1.04-2.03-2.11-4.04-3.14-6.07-.29-.57-.51-.66-.98-.12-1.93,2.22-3.9,4.4-5.87,6.59-1.94,2.17-3.91,4.32-5.84,6.5-1.79,2.01-3.55,4.06-5.34,6.06-2.11,2.35-4.25,4.66-6.37,7-1.77,1.96-3.51,3.94-5.26,5.91-1.75,1.97-3.52,3.93-5.26,5.91-1.93,2.18-3.81,4.4-5.76,6.57-1.73,1.93-3.57,3.75-5.23,5.73-.74.88-1.49,1.13-2.57,1.12-3.72-.06-7.43-.02-11.15-.02-.15,0-.3-.03-.74-.08Z"/>
    <path class="cls-1" d="M178.83,51.16c-2.45,2.69-4.83,5.3-7.32,8.04-5.15-5.37-10.25-10.69-15.39-16.06-.06.17-.15.31-.15.45.03,6.83.07,13.66.1,20.5.02,3.44.01,6.89.03,10.33,0,.41.03.76-.56.76-3.55-.01-7.11,0-10.66,0-.1,0-.2-.05-.35-.08V27.27c.26-.02.52-.05.78-.05,3.47,0,6.94.03,10.41-.02.63,0,.84.37,1.17.71,2.09,2.23,4.18,4.45,6.28,6.67,4.46,4.71,8.93,9.41,13.39,14.12.75.79,1.48,1.59,2.28,2.45Z"/>
    <path class="cls-1" d="M219.61,33.04c0,.66,0,1.08,0,1.5.02,9.89.05,19.79.07,29.68,0,3.36-.02,6.72.02,10.09,0,.69-.21.89-.89.88-3.31-.04-6.62-.04-9.92-.02-.6,0-.8-.15-.8-.78.03-9.29.03-18.59.05-27.88,0-.25.07-.57.22-.74,2.93-3.27,5.88-6.51,8.81-9.78.8-.89,1.53-1.84,2.44-2.94Z"/>
  </g>
</svg>